Format                           : AVI
Format/Info                      : Audio Video Interleave
File size                        : 891 MiB
Duration                         : 2h 40mn
Overall bit rate                 : 776 Kbps

Video
ID                               : 0
Format                           : MPEG-4 Visual
Format profile                   : Advanced Simple@L5
Format settings, BVOP            : Yes
Format settings, QPel            : No
Format settings, GMC             : No warppoints
Format settings, Matrix          : Default (H.263)
Codec ID                         : XVID
Codec ID/Hint                    : XviD
Duration                         : 2h 40mn
Bit rate                         : 637 Kbps
Width                            : 640 pixels
Height                           : 272 pixels
Display aspect ratio             : 2.35:1
Frame rate                       : 23.976 fps
Resolution                       : 8 bits
Colorimetry                      : 4:2:0
Scan type                        : Progressive
Bits/(Pixel*Frame)               : 0.153
Stream size                      : 731 MiB (82%)
Writing library                  : XviD 1.1.2 (UTC 2006-11-01)

Audio
ID                               : 1
Format                           : AC-3
Format/Info                      : Audio Coding 3
Format_Settings_ModeExtension    : CM (complete main)
Codec ID                         : 2000
Duration                         : 2h 40mn
Bit rate mode                    : Constant
Bit rate                         : 128 Kbps
Channel(s)                       : 3 channels
Channel positions                : Front: L C R
Sampling rate                    : 48.0 KHz
Resolution                       : 16 bits
Stream size                      : 147 MiB (16%)
Alignment                        : Aligned on interleaves
Interleave, duration             : 32 ms (0.77 video frame)